<?xml version="1.0" encoding="utf-8"?>
<!-- Generator: Adobe Illustrator 19.2.1, SVG Export Plug-In . SVG Version: 6.00 Build 0)  -->
<svg version="1.1" id="Layer_1" xmlns="http://www.w3.org/2000/svg" xmlns:xlink="http://www.w3.org/1999/xlink" x="0px" y="0px"
	 viewBox="0 0 1920 1080" style="enable-background:new 0 0 1920 1080;" xml:space="preserve">
<style type="text/css">
	.st0{fill:#0A0C30;}
	.st1{opacity:0.6;fill:#AF0425;}
	.st2{fill:#C60928;}
	.st3{filter:url(#Adobe_OpacityMaskFilter);}
	.st4{fill:#FFFFFF;}
	.st5{display:none;mask:url(#SVGID_1_);fill:#F40B37;}
	.st6{filter:url(#Adobe_OpacityMaskFilter_1_);}
	.st7{mask:url(#SVGID_2_);}
	.st8{fill:#DB0034;}
	.st9{fill:#F40B37;}
	.st10{opacity:0.2;}
</style>
<rect class="st0" width="1920" height="1080"/>
<path class="st1" d="M960,99.1c-1,0-2,0-3,0C714.9,100.7,519.1,297.5,519.1,540c0,243.5,197.4,440.9,440.9,440.9
	c98.8,0,190.1-32.5,263.6-87.5c107.6-80.4,177.3-208.8,177.3-353.4C1400.9,296.5,1203.5,99.1,960,99.1z"/>
<path class="st2" d="M1344.5,540c0,212.3-172.1,384.5-384.5,384.5S575.5,752.3,575.5,540S747.7,155.5,960,155.5
	S1344.5,327.7,1344.5,540z"/>
<defs>
	<filter id="Adobe_OpacityMaskFilter" filterUnits="userSpaceOnUse" x="446.8" y="155.8" width="852.7" height="768.9">
		<feColorMatrix  type="matrix" values="1 0 0 0 0  0 1 0 0 0  0 0 1 0 0  0 0 0 1 0"/>
	</filter>
</defs>
<mask maskUnits="userSpaceOnUse" x="446.8" y="155.8" width="852.7" height="768.9" id="SVGID_1_">
	<g class="st3">
		<path class="st4" d="M1344.5,540c0,212.3-172.1,384.5-384.5,384.5S575.5,752.3,575.5,540S747.7,155.5,960,155.5
			S1344.5,327.7,1344.5,540z"/>
	</g>
</mask>
<path class="st5" d="M1267.1,201.2v-5.8c0-21.9-17.8-39.7-39.7-39.7H731.9H486.5c-21.9,0-39.7,17.8-39.7,39.7V885
	c0,21.9,17.8,39.7,39.7,39.7h245.4h495.4c21.9,0,39.7-17.8,39.7-39.7v-5.8c0-21.9-17.8-39.7-39.7-39.7H924.3
	c-21.9,0-39.7-17.8-39.7-39.7v-8.5c0-21.9,17.8-39.7,39.7-39.7h240.9c21.9,0,39.7-17.8,39.7-39.7v-5.8c0-21.9-17.8-39.7-39.7-39.7
	H800c-21.9,0-39.7-17.8-39.7-39.7v-5.8c0-21.9,17.8-39.7,39.7-39.7h459.8c21.9,0,39.7-17.8,39.7-39.7V536
	c0-21.9-17.8-39.7-39.7-39.7H870.3c-21.9,0-39.7-17.8-39.7-39.7v-6c0-21.8,17.6-39.5,39.4-39.7l236.1-1.7
	c21.8-0.2,39.4-17.9,39.4-39.7v-5.8c0-22-17.9-39.8-39.9-39.7L830,325.8c-22,0.1-39.9-17.7-39.9-39.7v-5.5
	c0-21.9,17.8-39.7,39.7-39.7h397.6C1249.3,240.9,1267.1,223.1,1267.1,201.2z"/>
<defs>
	<filter id="Adobe_OpacityMaskFilter_1_" filterUnits="userSpaceOnUse" x="533.7" y="275" width="932" height="564.7">
		<feColorMatrix  type="matrix" values="1 0 0 0 0  0 1 0 0 0  0 0 1 0 0  0 0 0 1 0"/>
	</filter>
</defs>
<mask maskUnits="userSpaceOnUse" x="533.7" y="275" width="932" height="564.7" id="SVGID_2_">
	<g class="st6">
		<path class="st4" d="M1344.5,540c0,212.3-172.1,384.5-384.5,384.5S575.5,752.3,575.5,540S747.7,155.5,960,155.5
			S1344.5,327.7,1344.5,540z"/>
	</g>
</mask>
<g class="st7">
	<path class="st8" d="M940,307.5L940,307.5c0,17.9-14.6,32.5-32.5,32.5H580.2c-17.9,0-32.5-14.6-32.5-32.5v0
		c0-17.9,14.6-32.5,32.5-32.5h327.3C925.4,275,940,289.6,940,307.5z M698.5,503h131c14.1,0,25.5-11.4,25.5-25.5v0
		c0-14.1-11.4-25.5-25.5-25.5H673h-1h-85.8c-14.1,0-25.5,11.4-25.5,25.5v209c0,14.1,11.4,25.5,25.5,25.5H673h186
		c24.9,0,45-20.1,45-45v-32.3c0-24.9-20.1-45-45-45H698.5c-14.1,0-25.5-11.4-25.5-25.5v-35.7C673,514.4,684.4,503,698.5,503z
		 M621,839.7h188.7c13.3,0,24-10.7,24-24l0,0c0-13.3-10.7-24-24-24H621c-13.3,0-24,10.7-24,24l0,0C597,828.9,607.7,839.7,621,839.7z
		 M1062.7,427.7h-128c-12.3,0-22.3,10-22.3,22.3v0c0,12.3,10,22.3,22.3,22.3h128c12.3,0,22.3-10,22.3-22.3v0
		C1085,437.7,1075,427.7,1062.7,427.7z M1100,564.3h-88.7c-10.5,0-19,8.5-19,19l0,0c0,10.5,8.5,19,19,19h88.7c10.5,0,19-8.5,19-19
		l0,0C1119,572.8,1110.5,564.3,1100,564.3z"/>
	<path class="st9" d="M893.5,275H566.2c-17.9,0-32.5,14.6-32.5,32.5v0c0,17.9,14.6,32.5,32.5,32.5h327.3c17.9,0,32.5-14.6,32.5-32.5
		v0C926,289.6,911.4,275,893.5,275z"/>
	<path class="st9" d="M684.5,503h131c14.1,0,25.5-11.4,25.5-25.5v0c0-14.1-11.4-25.5-25.5-25.5H659h-1h-85.8
		c-14.1,0-25.5,11.4-25.5,25.5v209c0,14.1,11.4,25.5,25.5,25.5H659h186c24.9,0,45-20.1,45-45v-32.3c0-24.9-20.1-45-45-45H684.5
		c-14.1,0-25.5-11.4-25.5-25.5v-35.7C659,514.4,670.4,503,684.5,503z"/>
	<path class="st9" d="M607,839.7h188.7c13.3,0,24-10.7,24-24l0,0c0-13.3-10.7-24-24-24H607c-13.3,0-24,10.7-24,24l0,0
		C583,828.9,593.7,839.7,607,839.7z"/>
	<path class="st9" d="M1048.7,427.7h-128c-12.3,0-22.3,10-22.3,22.3v0c0,12.3,10,22.3,22.3,22.3h128c12.3,0,22.3-10,22.3-22.3v0
		C1071,437.7,1061,427.7,1048.7,427.7z"/>
	<path class="st9" d="M1086,564.3h-88.7c-10.5,0-19,8.5-19,19l0,0c0,10.5,8.5,19,19,19h88.7c10.5,0,19-8.5,19-19l0,0
		C1105,572.8,1096.5,564.3,1086,564.3z"/>
	<path class="st9" d="M1370.7,320.3H1180c-13.8,0-25,11.2-25,25v0c0,13.8,11.2,25,25,25h190.7c13.8,0,25-11.2,25-25v0
		C1395.7,331.5,1384.5,320.3,1370.7,320.3z"/>
	<path class="st9" d="M1062.3,731.9v4.2c0,24.8,20.1,44.9,44.9,44.9h313.5c24.8,0,44.9-20.1,44.9-44.9v-4.2
		c0-24.8-20.1-44.9-44.9-44.9h-313.5C1082.4,687,1062.3,707.1,1062.3,731.9z"/>
</g>
<path class="st10" d="M1400.9,540c0,144.6-69.7,273-177.3,353.4C1133,770,1055.9,608,1007.2,423.4C977.7,311.7,961.3,202,957,99.1
	c1,0,2,0,3,0C1203.5,99.1,1400.9,296.5,1400.9,540z"/>
</svg>
