<svg id="Layer_1" data-name="Layer 1" xmlns="http://www.w3.org/2000/svg" viewBox="0 0 1920 1213.17"><defs><style>.cls-1{fill:#2d2d2d;}.cls-2{font-size:1054.29px;font-family:Open Sans;font-weight:700;}</style></defs><title>x</title><rect class="cls-1" width="1920" height="1080"/><text class="cls-2" transform="translate(608.4 904.29)">X</text><polygon points="1920 726.83 1920 866.32 1706.33 1080 1567.97 1080 1567.39 1079.42 1919.99 726.82 1920 726.83"/><polygon points="1920 213.74 1920 353.22 1919.99 353.23 1567.39 0.63 1568.02 0 1706.27 0 1920 213.74"/><polygon points="353.26 1079.42 352.68 1080 214.32 1080 0 865.68 0 727.48 0.66 726.82 353.26 1079.42"/><polygon points="353.26 0.63 0.66 353.23 0 352.57 0 214.38 214.38 0 352.62 0 353.26 0.63"/></svg>